HIERARCHY
ROOT Hips
{
  OFFSET 0.000 58.647 0.000
  CHANNELS 6 Xposition Yposition Zposition Zrotation Xrotation Yrotation
  JOINT LeftUpLeg
  {
    OFFSET 7.227 0.487 3.253
    CHANNELS 6 Xposition Yposition Zposition Zrotation Xrotation Yrotation
    JOINT LeftLeg
    {
      OFFSET 0.000 -27.629 0.000
      CHANNELS 6 Xposition Yposition Zposition Zrotation Xrotation Yrotation
      JOINT LeftFoot
      {
        OFFSET 0.000 -31.504 0.000
        CHANNELS 6 Xposition Yposition Zposition Zrotation Xrotation Yrotation
        End Site
        {
          OFFSET 0.000 0.000 8.519
        }
      }
    }
  }
  JOINT RightUpLeg
  {
    OFFSET -7.227 0.487 3.253
    CHANNELS 6 Xposition Yposition Zposition Zrotation Xrotation Yrotation
    JOINT RightLeg
    {
      OFFSET 0.000 -27.629 0.000
      CHANNELS 6 Xposition Yposition Zposition Zrotation Xrotation Yrotation
      JOINT RightFoot
      {
        OFFSET 0.000 -31.504 0.000
        CHANNELS 6 Xposition Yposition Zposition Zrotation Xrotation Yrotation
        End Site
        {
          OFFSET 0.000 0.000 8.519
        }
      }
    }
  }
  JOINT Spine
  {
    OFFSET 0.000 25.861 0.000
    CHANNELS 6 Xposition Yposition Zposition Zrotation Xrotation Yrotation
    JOINT Spine1
    {
      OFFSET 0.000 19.210 0.000
      CHANNELS 6 Xposition Yposition Zposition Zrotation Xrotation Yrotation
      JOINT LeftShoulder
      {
        OFFSET 1.790 -0.220 0.196
        CHANNELS 6 Xposition Yposition Zposition Zrotation Xrotation Yrotation
        JOINT LeftArm
        {
          OFFSET 16.559 0.000 0.000
          CHANNELS 6 Xposition Yposition Zposition Zrotation Xrotation Yrotation
          JOINT LeftForeArm
          {
            OFFSET 22.245 0.000 0.000
            CHANNELS 6 Xposition Yposition Zposition Zrotation Xrotation Yrotation
            JOINT LeftHand
            {
              OFFSET 19.159 0.000 0.000
              CHANNELS 6 Xposition Yposition Zposition Zrotation Xrotation Yrotation
              JOINT LeftHandThumb1
              {
                OFFSET 4.877 -1.044 3.608
                CHANNELS 6 Xposition Yposition Zposition Zrotation Xrotation Yrotation
                JOINT LeftHandThumb2
                {
                  OFFSET 2.665 0.000 0.000
                  CHANNELS 6 Xposition Yposition Zposition Zrotation Xrotation Yrotation
                  JOINT LeftHandThumb3
                  {
                    OFFSET 2.543 0.000 0.000
                    CHANNELS 6 Xposition Yposition Zposition Zrotation Xrotation Yrotation
                    End Site
                    {
                      OFFSET 2.667 0.000 0.000
                    }
                  }
                }
              }
              JOINT LeftHandIndex1
              {
                OFFSET 9.232 -0.301 2.144
                CHANNELS 6 Xposition Yposition Zposition Zrotation Xrotation Yrotation
                JOINT LeftHandIndex2
                {
                  OFFSET 4.225 0.000 -0.000
                  CHANNELS 6 Xposition Yposition Zposition Zrotation Xrotation Yrotation
                  JOINT LeftHandIndex3
                  {
                    OFFSET 2.654 -0.000 0.000
                    CHANNELS 6 Xposition Yposition Zposition Zrotation Xrotation Yrotation
                    End Site
                    {
                      OFFSET 1.958 0.000 0.000
                    }
                  }
                }
              }
              JOINT LeftHandMiddle1
              {
                OFFSET 8.920 0.000 -0.000
                CHANNELS 6 Xposition Yposition Zposition Zrotation Xrotation Yrotation
                JOINT LeftHandMiddle2
                {
                  OFFSET 4.863 0.000 0.000
                  CHANNELS 6 Xposition Yposition Zposition Zrotation Xrotation Yrotation
                  JOINT LeftHandMiddle3
                  {
                    OFFSET 2.765 0.000 0.000
                    CHANNELS 6 Xposition Yposition Zposition Zrotation Xrotation Yrotation
                    End Site
                    {
                      OFFSET 2.006 0.000 0.000
                    }
                  }
                }
              }
              JOINT LeftHandRing1
              {
                OFFSET 8.689 -0.126 -2.087
                CHANNELS 6 Xposition Yposition Zposition Zrotation Xrotation Yrotation
                JOINT LeftHandRing2
                {
                  OFFSET 4.538 0.000 0.000
                  CHANNELS 6 Xposition Yposition Zposition Zrotation Xrotation Yrotation
                  JOINT LeftHandRing3
                  {
                    OFFSET 2.305 -0.000 0.000
                    CHANNELS 6 Xposition Yposition Zposition Zrotation Xrotation Yrotation
                    End Site
                    {
                      OFFSET 1.923 0.000 0.000
                    }
                  }
                }
              }
              JOINT LeftHandPinky1
              {
                OFFSET 8.391 -0.817 -3.758
                CHANNELS 6 Xposition Yposition Zposition Zrotation Xrotation Yrotation
                JOINT LeftHandPinky2
                {
                  OFFSET 3.044 0.000 0.000
                  CHANNELS 6 Xposition Yposition Zposition Zrotation Xrotation Yrotation
                  JOINT LeftHandPinky3
                  {
                    OFFSET 1.975 0.000 -0.000
                    CHANNELS 6 Xposition Yposition Zposition Zrotation Xrotation Yrotation
                    End Site
                    {
                      OFFSET 1.667 0.000 0.000
                    }
                  }
                }
              }
            }
          }
        }
      }
      JOINT RightShoulder
      {
        OFFSET -1.790 -0.220 0.196
        CHANNELS 6 Xposition Yposition Zposition Zrotation Xrotation Yrotation
        JOINT RightArm
        {
          OFFSET -16.559 0.000 0.000
          CHANNELS 6 Xposition Yposition Zposition Zrotation Xrotation Yrotation
          JOINT RightForeArm
          {
            OFFSET -22.245 0.000 0.000
            CHANNELS 6 Xposition Yposition Zposition Zrotation Xrotation Yrotation
            JOINT RightHand
            {
              OFFSET -19.159 0.000 0.000
              CHANNELS 6 Xposition Yposition Zposition Zrotation Xrotation Yrotation
              JOINT RightHandThumb1
              {
                OFFSET -4.877 -1.044 3.608
                CHANNELS 6 Xposition Yposition Zposition Zrotation Xrotation Yrotation
                JOINT RightHandThumb2
                {
                  OFFSET -2.665 -0.000 -0.000
                  CHANNELS 6 Xposition Yposition Zposition Zrotation Xrotation Yrotation
                  JOINT RightHandThumb3
                  {
                    OFFSET -2.543 -0.000 0.000
                    CHANNELS 6 Xposition Yposition Zposition Zrotation Xrotation Yrotation
                    End Site
                    {
                      OFFSET -2.667 0.000 -0.000
                    }
                  }
                }
              }
              JOINT RightHandIndex1
              {
                OFFSET -9.232 -0.301 2.144
                CHANNELS 6 Xposition Yposition Zposition Zrotation Xrotation Yrotation
                JOINT RightHandIndex2
                {
                  OFFSET -4.225 0.000 0.000
                  CHANNELS 6 Xposition Yposition Zposition Zrotation Xrotation Yrotation
                  JOINT RightHandIndex3
                  {
                    OFFSET -2.654 -0.000 0.000
                    CHANNELS 6 Xposition Yposition Zposition Zrotation Xrotation Yrotation
                    End Site
                    {
                      OFFSET -1.958 -0.000 0.000
                    }
                  }
                }
              }
              JOINT RightHandMiddle1
              {
                OFFSET -8.920 -0.000 0.000
                CHANNELS 6 Xposition Yposition Zposition Zrotation Xrotation Yrotation
                JOINT RightHandMiddle2
                {
                  OFFSET -4.863 0.000 0.000
                  CHANNELS 6 Xposition Yposition Zposition Zrotation Xrotation Yrotation
                  JOINT RightHandMiddle3
                  {
                    OFFSET -2.765 0.000 0.000
                    CHANNELS 6 Xposition Yposition Zposition Zrotation Xrotation Yrotation
                    End Site
                    {
                      OFFSET -2.006 0.000 0.000
                    }
                  }
                }
              }
              JOINT RightHandRing1
              {
                OFFSET -8.689 -0.126 -2.087
                CHANNELS 6 Xposition Yposition Zposition Zrotation Xrotation Yrotation
                JOINT RightHandRing2
                {
                  OFFSET -4.538 -0.000 0.000
                  CHANNELS 6 Xposition Yposition Zposition Zrotation Xrotation Yrotation
                  JOINT RightHandRing3
                  {
                    OFFSET -2.305 -0.000 -0.000
                    CHANNELS 6 Xposition Yposition Zposition Zrotation Xrotation Yrotation
                    End Site
                    {
                      OFFSET -1.923 -0.000 0.000
                    }
                  }
                }
              }
              JOINT RightHandPinky1
              {
                OFFSET -8.391 -0.817 -3.758
                CHANNELS 6 Xposition Yposition Zposition Zrotation Xrotation Yrotation
                JOINT RightHandPinky2
                {
                  OFFSET -3.044 -0.000 -0.000
                  CHANNELS 6 Xposition Yposition Zposition Zrotation Xrotation Yrotation
                  JOINT RightHandPinky3
                  {
                    OFFSET -1.975 -0.000 0.000
                    CHANNELS 6 Xposition Yposition Zposition Zrotation Xrotation Yrotation
                    End Site
                    {
                      OFFSET -1.667 0.000 0.000
                    }
                  }
                }
              }
            }
          }
        }
      }
      JOINT Neck
      {
        OFFSET 0.000 0.636 0.000
        CHANNELS 6 Xposition Yposition Zposition Zrotation Xrotation Yrotation
        JOINT Head
        {
          OFFSET 0.000 5.780 0.000
          CHANNELS 6 Xposition Yposition Zposition Zrotation Xrotation Yrotation
          End Site
          {
            OFFSET 0.000 10.760 0.000
          }
        }
      }
    }
  }
}
MOTION
Frames:	4
Frame Time:	0.033333
37.18151 -33.53977 -398.20813 1.66218 -0.89486 -12.42277 7.97063 0.40516 3.44229 8.66370 -5.18293 2.23088 -0.00780 -27.09551 0.03309 -3.46148 10.84361 -5.48320 -0.01116 -30.91340 0.04086 -0.27613 26.47081 2.48431 -7.11063 0.08572 3.44563 -8.03414 -11.11549 -15.17667 0.02990 -25.97244 0.00570 -2.13673 13.87823 16.67406 -0.00462 -30.95034 -0.00515 -2.93410 23.18500 10.14287 0.00106 27.52505 0.00881 -0.01242 1.85218 -0.56689 0.00883 20.37616 0.00196 -0.21879 2.60444 -0.52572 1.69693 -0.24929 0.29602 -7.84484 1.37620 -9.87793 15.88018 -0.00524 -0.00487 -50.45974 0.34694 -15.25370 22.77126 -0.16274 -0.04042 -1.47983 -0.53958 -34.06622 20.57049 -0.11159 -0.11030 -18.42255 4.38269 15.75725 4.87701 -1.04399 3.60801 -41.57595 -8.45725 -7.72882 2.66501 0.00002 0.00000 0.00001 -0.00000 5.00000 2.54300 0.00002 0.00000 0.00001 0.00000 60.00001 9.23200 -0.30098 2.14400 -80.00000 -0.00000 0.00000 4.22502 0.00000 -0.00002 -90.00000 -0.00000 0.00000 2.65400 -0.00002 0.00005 -69.99999 -0.00000 -0.00000 8.92000 0.00000 -0.00002 -80.00000 -0.00000 0.00000 4.86298 0.00001 0.00002 -90.00000 -0.00000 0.00000 2.76501 0.00002 0.00000 -69.99999 -0.00000 -0.00000 8.68900 -0.12600 -2.08700 -80.00000 -0.00000 0.00000 4.53801 0.00000 0.00000 -90.00000 -0.00000 0.00000 2.30500 -0.00001 0.00000 -69.99999 -0.00000 -0.00000 8.39100 -0.81701 -3.75803 -80.00000 -0.00000 0.00000 3.04399 0.00000 0.00002 -90.00000 -0.00000 0.00000 1.97498 0.00001 -0.00002 -69.99999 -0.00000 -0.00000 -1.75505 -0.36610 0.29827 11.48663 1.99629 9.73533 -16.21518 0.00364 -0.00060 53.00211 -1.62686 12.53655 -21.47409 -0.04676 0.01404 -9.44294 -1.81080 45.76014 -18.75322 -0.07526 -0.37048 31.61390 13.43005 0.14783 -4.87702 -1.04399 3.60804 34.46066 17.38793 8.40343 -2.66500 -0.00005 -0.00001 0.00000 0.00000 -6.14380 -2.54298 -0.00002 0.00001 0.00000 -0.00000 -49.70438 -9.23202 -0.30100 2.14400 66.27248 -0.00000 0.00001 -4.22500 0.00002 0.00000 75.12849 -0.00001 0.00000 -2.65403 -0.00000 0.00000 60.84324 0.99896 0.55727 -8.92000 -0.00001 0.00000 66.27248 -0.00000 0.00001 -4.86300 0.00000 0.00000 75.12849 -0.00001 0.00000 -2.76501 0.00001 0.00000 60.84324 0.99896 0.55727 -8.68902 -0.12599 -2.08697 66.27248 -0.00000 0.00001 -4.53800 -0.00002 0.00000 75.12849 -0.00001 0.00000 -2.30501 -0.00000 -0.00002 60.84324 0.99896 0.55727 -8.39102 -0.81699 -3.75798 66.27248 -0.00000 0.00001 -3.04400 -0.00002 -0.00002 75.12849 -0.00001 0.00000 -1.97501 -0.00001 0.00000 60.84324 0.99896 0.55727 0.00099 0.67210 0.00177 -0.00050 -0.00117 -0.00073 -0.02024 6.04927 0.00602 1.05782 -3.65470 -0.28028 
36.67942 -33.89037 -398.15182 1.40761 -0.86556 -11.81067 7.95700 0.35292 3.45612 9.18513 -6.28398 3.43244 0.00682 -27.60851 0.05439 -4.33479 12.30581 -4.62330 -0.02086 -30.91340 0.05830 -8.72310 31.13204 14.41861 -7.17321 0.13424 3.46266 -7.12350 -11.93526 -13.76658 0.02990 -25.94234 -0.01067 -2.84891 13.11609 15.36923 -0.00462 -30.96150 0.01393 -1.61186 21.53052 6.40243 0.00106 27.52205 0.00881 0.00535 1.89541 -0.65366 0.00883 20.35747 0.00196 -0.22812 2.61706 -0.59056 1.69693 -0.24929 0.29602 -7.80194 1.35310 -9.76356 15.85101 -0.00524 -0.00487 -52.04884 0.24559 -14.29088 23.33448 -0.16269 -0.04042 -2.76853 -1.61807 -31.33353 20.40968 -0.21339 -0.11030 -20.76622 2.47346 12.39654 4.87701 -1.04399 3.60801 -41.57595 -8.45725 -7.72882 2.66501 0.00002 0.00000 0.00001 -0.00000 5.00000 2.54300 0.00002 0.00000 0.00001 0.00000 60.00001 9.23200 -0.30098 2.14400 -80.00000 -0.00000 0.00000 4.22502 0.00000 -0.00002 -90.00000 -0.00000 0.00000 2.65400 -0.00002 0.00005 -69.99999 -0.00000 -0.00000 8.92000 0.00000 -0.00002 -80.00000 -0.00000 0.00000 4.86298 0.00001 0.00002 -90.00000 -0.00000 0.00000 2.76501 0.00002 0.00000 -69.99999 -0.00000 -0.00000 8.68900 -0.12600 -2.08700 -80.00000 -0.00000 0.00000 4.53801 0.00000 0.00000 -90.00000 -0.00000 0.00000 2.30500 -0.00001 0.00000 -69.99999 -0.00000 -0.00000 8.39100 -0.81701 -3.75803 -80.00000 -0.00000 0.00000 3.04399 0.00000 0.00002 -90.00000 -0.00000 0.00000 1.97498 0.00001 -0.00002 -69.99999 -0.00000 -0.00000 -1.73838 -0.37957 0.29827 11.85534 2.05628 9.68498 -16.08125 0.00364 -0.00060 53.57875 -1.84018 12.09669 -22.11508 -0.04676 0.00004 -8.30720 -1.53922 41.40187 -19.16166 -0.16471 -0.45587 31.73450 14.36540 -5.86562 -4.87702 -1.04399 3.60804 35.74564 19.06942 8.31848 -2.66500 -0.00005 -0.00001 0.00000 0.00000 -5.64852 -2.54298 -0.00002 0.00001 0.00000 -0.00000 -54.16263 -9.23202 -0.30100 2.14400 72.21684 -0.00000 0.00001 -4.22500 0.00002 0.00000 81.56821 -0.00001 0.00000 -2.65403 -0.00000 0.00000 64.80965 0.58742 0.27517 -8.92000 -0.00001 0.00000 72.21684 -0.00000 0.00001 -4.86300 0.00000 0.00000 81.56821 -0.00001 0.00000 -2.76501 0.00001 0.00000 64.80965 0.58742 0.27517 -8.68902 -0.12599 -2.08697 72.21684 -0.00000 0.00001 -4.53800 -0.00002 0.00000 81.56821 -0.00001 0.00000 -2.30501 -0.00000 -0.00002 64.80965 0.58742 0.27517 -8.39102 -0.81699 -3.75798 72.21684 -0.00000 0.00001 -3.04400 -0.00002 -0.00002 81.56821 -0.00001 0.00000 -1.97501 -0.00001 0.00000 64.80965 0.58742 0.27517 0.00099 0.67210 0.00177 -0.00050 -0.00117 -0.00073 -0.02024 6.03247 0.00602 1.25445 -3.88704 -0.79810 
36.31145 -34.18119 -398.09326 1.23706 -0.84279 -11.33317 7.94826 0.31521 3.46611 9.57258 -7.41463 4.28546 0.01527 -27.61356 0.04790 -4.22295 13.77622 -4.56987 -0.02227 -30.91340 0.04289 -4.95257 26.56747 8.73490 -7.22475 0.16958 3.47446 -6.48176 -12.66510 -12.73292 0.02990 -25.80822 -0.02205 -3.32154 13.49674 14.08942 -0.00462 -30.97835 0.01264 -1.05808 20.29863 4.50780 0.00106 27.50411 0.00881 -0.00628 1.90852 -0.69362 0.00763 20.34506 0.00196 -0.23313 2.61693 -0.60462 1.69693 -0.24471 0.29602 -7.59802 1.30000 -9.61842 15.78534 -0.00524 -0.00487 -52.97667 0.50602 -13.55247 23.61465 -0.13619 -0.04042 -4.21903 -2.12840 -29.81613 20.33183 -0.22932 -0.10514 -19.52442 0.26917 10.75434 4.87701 -1.04399 3.60801 -41.57595 -8.45725 -7.72882 2.66501 0.00002 0.00000 0.00001 -0.00000 5.00000 2.54300 0.00002 0.00000 0.00001 0.00000 60.00001 9.23200 -0.30098 2.14400 -80.00000 -0.00000 0.00000 4.22502 0.00000 -0.00002 -90.00000 -0.00000 0.00000 2.65400 -0.00002 0.00005 -69.99999 -0.00000 -0.00000 8.92000 0.00000 -0.00002 -80.00000 -0.00000 0.00000 4.86298 0.00001 0.00002 -90.00000 -0.00000 0.00000 2.76501 0.00002 0.00000 -69.99999 -0.00000 -0.00000 8.68900 -0.12600 -2.08700 -80.00000 -0.00000 0.00000 4.53801 0.00000 0.00000 -90.00000 -0.00000 0.00000 2.30500 -0.00001 0.00000 -69.99999 -0.00000 -0.00000 8.39100 -0.81701 -3.75803 -80.00000 -0.00000 0.00000 3.04399 0.00000 0.00002 -90.00000 -0.00000 0.00000 1.97498 0.00001 -0.00002 -69.99999 -0.00000 -0.00000 -1.72982 -0.39857 0.29827 12.40795 2.12297 9.53000 -16.03551 0.00364 -0.00060 53.49870 -1.39427 11.63965 -22.75961 -0.04814 -0.01499 -5.55621 -0.93544 37.57026 -19.34901 -0.29388 -0.51546 32.88615 14.82812 -2.78510 -4.87702 -1.04399 3.60804 36.38952 19.90754 8.27588 -2.66500 -0.00005 -0.00001 0.00000 0.00000 -5.40127 -2.54298 -0.00002 0.00001 0.00000 -0.00000 -56.38803 -9.23202 -0.30100 2.14400 75.18402 -0.00000 0.00001 -4.22500 0.00002 0.00000 84.78268 -0.00001 0.00000 -2.65403 -0.00000 0.00000 66.78876 0.36897 0.15785 -8.92000 -0.00001 0.00000 75.18402 -0.00000 0.00001 -4.86300 0.00000 0.00000 84.78268 -0.00001 0.00000 -2.76501 0.00001 0.00000 66.78876 0.36897 0.15785 -8.68902 -0.12599 -2.08697 75.18402 -0.00000 0.00001 -4.53800 -0.00002 0.00000 84.78268 -0.00001 0.00000 -2.30501 -0.00000 -0.00002 66.78876 0.36897 0.15785 -8.39102 -0.81699 -3.75798 75.18402 -0.00000 0.00001 -3.04400 -0.00002 -0.00002 84.78268 -0.00001 0.00000 -1.97501 -0.00001 0.00000 66.78876 0.36897 0.15785 0.00099 0.67210 0.00177 -0.00050 -0.00117 -0.00073 -0.02024 6.02539 0.00602 1.37508 -4.07648 -0.90765 
36.00568 -34.43218 -398.00571 1.09308 -0.87720 -10.93405 7.95229 0.28824 3.47469 9.98345 -8.32078 5.17083 0.02062 -27.65170 0.04272 -3.64914 14.71410 -4.93614 -0.01798 -30.91279 0.01995 -3.24157 23.58239 5.93894 -7.27500 0.19062 3.48383 -5.96768 -13.18999 -11.81504 0.02476 -25.65962 -0.02564 -3.59095 14.04503 12.81588 -0.00310 -30.98635 0.01046 -0.75266 19.30024 3.31939 0.00106 27.48588 0.00881 -0.01664 1.92988 -0.70254 0.00655 20.33249 0.00196 -0.23179 2.61684 -0.58975 1.69693 -0.23867 0.29602 -7.38854 1.25404 -9.54035 15.72772 -0.00524 -0.00507 -55.25834 0.35587 -11.20616 23.54875 -0.16805 -0.04601 -3.75572 -3.08267 -32.57902 20.38207 -0.15612 -0.07855 -14.51864 -3.30127 10.86580 4.87701 -1.04399 3.60801 -41.57595 -8.45725 -7.72882 2.66501 0.00002 0.00000 0.00001 -0.00000 5.00000 2.54300 0.00002 0.00000 0.00001 0.00000 60.00001 9.23200 -0.30098 2.14400 -80.00000 -0.00000 0.00000 4.22502 0.00000 -0.00002 -90.00000 -0.00000 0.00000 2.65400 -0.00002 0.00005 -69.99999 -0.00000 -0.00000 8.92000 0.00000 -0.00002 -80.00000 -0.00000 0.00000 4.86298 0.00001 0.00002 -90.00000 -0.00000 0.00000 2.76501 0.00002 0.00000 -69.99999 -0.00000 -0.00000 8.68900 -0.12600 -2.08700 -80.00000 -0.00000 0.00000 4.53801 0.00000 0.00000 -90.00000 -0.00000 0.00000 2.30500 -0.00001 0.00000 -69.99999 -0.00000 -0.00000 8.39100 -0.81701 -3.75803 -80.00000 -0.00000 0.00000 3.04399 0.00000 0.00002 -90.00000 -0.00000 0.00000 1.97498 0.00001 -0.00002 -69.99999 -0.00000 -0.00000 -1.72364 -0.41683 0.29827 12.95673 2.19780 9.42798 -16.01884 0.00364 -0.00060 53.08833 -0.64205 11.01278 -23.11713 -0.03492 -0.02227 -1.85802 -0.39335 35.13280 -19.46074 -0.29532 -0.39394 34.40321 14.84639 -3.70038 -4.87702 -1.04399 3.60804 36.79416 20.43277 8.24913 -2.66500 -0.00005 -0.00001 0.00000 0.00000 -5.24623 -2.54298 -0.00002 0.00001 0.00000 -0.00000 -57.78361 -9.23202 -0.30100 2.14400 77.04482 -0.00000 0.00001 -4.22500 0.00002 0.00000 86.79855 -0.00001 0.00000 -2.65403 -0.00000 0.00000 68.02966 0.22841 0.09202 -8.92000 -0.00001 0.00000 77.04482 -0.00000 0.00001 -4.86300 0.00000 0.00000 86.79855 -0.00001 0.00000 -2.76501 0.00001 0.00000 68.02966 0.22841 0.09202 -8.68902 -0.12599 -2.08697 77.04482 -0.00000 0.00001 -4.53800 -0.00002 0.00000 86.79855 -0.00001 0.00000 -2.30501 -0.00000 -0.00002 68.02966 0.22841 0.09202 -8.39102 -0.81699 -3.75798 77.04482 -0.00000 0.00001 -3.04400 -0.00002 -0.00002 86.79855 -0.00001 0.00000 -1.97501 -0.00001 0.00000 68.02966 0.22841 0.09202 0.00099 0.67210 0.00177 -0.00050 -0.00117 -0.00073 -0.01763 6.02022 0.00602 1.42775 -4.22927 -1.01843 
